<?xml version="1.0" encoding="utf-8"?>
<!-- Generator: Adobe Illustrator 21.0.2, SVG Export Plug-In . SVG Version: 6.00 Build 0)  -->
<svg version="1.1" id="Layer_1" xmlns="http://www.w3.org/2000/svg" xmlns:xlink="http://www.w3.org/1999/xlink" x="0px" y="0px"
	 viewBox="0 0 100 100" style="enable-background:new 0 0 100 100;" xml:space="preserve">
<style type="text/css">
	.st0{fill:#4B4B4B;}
</style>
<path class="st0" d="M68.9,36.5h-38c-1.1,0-2-0.9-2-2c0-1.1,0.9-2,2-2h38c1.1,0,2,0.9,2,2C70.9,35.6,70,36.5,68.9,36.5z M32.9,40.5
	h30c1.1,0,2,0.9,2,2s-0.9,2-2,2h-30c-1.1,0-2-0.9-2-2C30.9,41.4,31.8,40.5,32.9,40.5z M44.9,48.5h22c1.1,0,2,0.9,2,2
	c0,1.1-0.9,2-2,2h-22c-1.1,0-2-0.9-2-2C42.9,49.4,43.8,48.5,44.9,48.5z M46.9,64.5h6c1.1,0,2,0.9,2,2c0,1.1-0.9,2-2,2h-6
	c-1.1,0-2-0.9-2-2C44.9,65.4,45.8,64.5,46.9,64.5z M47.9,58.5c0-1.1,0.9-2,2-2h14c1.1,0,2,0.9,2,2c0,1.1-0.9,2-2,2h-14
	C48.8,60.5,47.9,59.6,47.9,58.5z"/>
</svg>
