<?xml version="1.0" encoding="utf-8"?>
<!-- Generator: Adobe Illustrator 21.0.2, SVG Export Plug-In . SVG Version: 6.00 Build 0)  -->
<svg version="1.1" id="Layer_1" xmlns="http://www.w3.org/2000/svg" xmlns:xlink="http://www.w3.org/1999/xlink" x="0px" y="0px"
	 viewBox="0 0 100 100" style="enable-background:new 0 0 100 100;" xml:space="preserve">
<style type="text/css">
	.st0{fill:#6699FF;}
	.st1{fill:#4B4B4B;}
</style>
<path class="st0" d="M41.9,53.6c-1.1,0-2,0.9-2,2v4c0,1.1,0.9,2,2,2c1.1,0,2-0.9,2-2v-4C43.9,54.5,43,53.6,41.9,53.6z"/>
<path class="st0" d="M49.9,69.6c-1.1,0-2,0.9-2,2v4c0,1.1,0.9,2,2,2c1.1,0,2-0.9,2-2v-4C51.9,70.5,51,69.6,49.9,69.6z"/>
<path class="st0" d="M49.9,57.6c-1.1,0-2,0.9-2,2v4c0,1.1,0.9,2,2,2c1.1,0,2-0.9,2-2v-4C51.9,58.5,51,57.6,49.9,57.6z"/>
<path class="st0" d="M41.9,65.6c-1.1,0-2,0.9-2,2v4c0,1.1,0.9,2,2,2c1.1,0,2-0.9,2-2v-4C43.9,66.5,43,65.6,41.9,65.6z"/>
<path class="st1" d="M67.9,53.6c0,3-1.6,5.5-4,6.9v4.4c4.7-1.6,8-6.1,8-11.3c0-6.6-5.4-12-12-12c-0.7,0-1.4,0.1-2,0.2
	c-2.7-4.9-8-8.2-14-8.2c-8.8,0-16,7.2-16,16c0,5.9,3.2,11.1,8,13.8v-4.9c-2.4-2.2-4-5.4-4-8.9c0-6.1,4.5-11.1,10.3-11.9
	c0.5-0.1,1.1-0.1,1.7-0.1c5.4,0,9.9,3.6,11.4,8.4c0.3,0.2,0.6,0.3,0.9,0.5c1.1-0.6,2.3-0.9,3.7-0.9C64.4,45.6,67.9,49.2,67.9,53.6z"
	/>
<path class="st1" d="M55.6,46.9c0.2-0.1,0.4-0.3,0.7-0.4c-0.3-0.2-0.6-0.3-0.9-0.5C55.5,46.4,55.5,46.6,55.6,46.9z"/>
<path class="st0" d="M57.9,53.6c-1.1,0-2,0.9-2,2v4c0,1.1,0.9,2,2,2c1.1,0,2-0.9,2-2v-4C59.9,54.5,59,53.6,57.9,53.6z"/>
<path class="st0" d="M57.9,65.6c-1.1,0-2,0.9-2,2v4c0,1.1,0.9,2,2,2c1.1,0,2-0.9,2-2v-4C59.9,66.5,59,65.6,57.9,65.6z"/>
</svg>
