<?xml version="1.0" encoding="utf-8"?>
<!-- Generator: Adobe Illustrator 21.0.2, SVG Export Plug-In . SVG Version: 6.00 Build 0)  -->
<svg version="1.1" id="Layer_1" xmlns="http://www.w3.org/2000/svg" xmlns:xlink="http://www.w3.org/1999/xlink" x="0px" y="0px"
	 viewBox="0 0 100 100" style="enable-background:new 0 0 100 100;" xml:space="preserve">
<style type="text/css">
	.st0{fill:#6699FF;}
	.st1{fill:#4B4B4B;}
</style>
<path class="st0" d="M51.9,75.6v-16c0-1.1-0.9-2-2-2s-2,0.9-2,2v16c0,1.1,0.9,2,2,2S51.9,76.7,51.9,75.6z"/>
<path class="st0" d="M43.9,71.6v-16c0-1.1-0.9-2-2-2s-2,0.9-2,2v16c0,1.1,0.9,2,2,2S43.9,72.7,43.9,71.6z"/>
<path class="st0" d="M59.9,71.6v-16c0-1.1-0.9-2-2-2c-1.1,0-2,0.9-2,2v16c0,1.1,0.9,2,2,2C59,73.6,59.9,72.7,59.9,71.6z"/>
<path class="st1" d="M59.9,41.6c-0.7,0-1.4,0.1-2,0.2c-2.7-4.9-8-8.2-14-8.2c-8.8,0-16,7.2-16,16c0,5.9,3.2,11.1,8,13.8v-4.9
	c-2.4-2.2-4-5.4-4-8.9c0-6.6,5.4-12,12-12c5.7,0,10.4,4,11.7,9.3c1.3-0.8,2.7-1.3,4.3-1.3c4.4,0,8,3.6,8,8c0,3-1.6,5.5-4,6.9v4.4
	c4.7-1.6,8-6.1,8-11.3C71.9,47,66.6,41.6,59.9,41.6z"/>
</svg>
