<?xml version="1.0" encoding="utf-8"?>
<!-- Generator: Adobe Illustrator 21.0.2, SVG Export Plug-In . SVG Version: 6.00 Build 0)  -->
<svg version="1.1" id="Layer_1" xmlns="http://www.w3.org/2000/svg" xmlns:xlink="http://www.w3.org/1999/xlink" x="0px" y="0px"
	 viewBox="0 0 100 100" style="enable-background:new 0 0 100 100;" xml:space="preserve">
<style type="text/css">
	.st0{fill:#4B4B4B;}
	.st1{fill:#FFCC00;}
</style>
<path class="st0" d="M59.7,53.3l-2-1.1c0.2-0.7,0.3-1.4,0.3-2.1s-0.1-1.5-0.3-2.1l2-1.1c1-0.5,1.3-1.8,0.7-2.7
	c-0.5-1-1.8-1.3-2.7-0.7l-1.9,1.1c-1-1-2.3-1.8-3.7-2.1V40c0-1.1-0.9-2-2-2s-2,0.9-2,2v2.3c-1.4,0.4-2.7,1.1-3.7,2.1l-1.9-1.1
	c-1-0.6-2.2-0.2-2.7,0.7c-0.5,1-0.2,2.2,0.7,2.7l2,1.1C42.1,48.5,42,49.3,42,50s0.1,1.5,0.3,2.1l-2,1.1c-1,0.5-1.3,1.8-0.7,2.7
	s1.8,1.3,2.7,0.7l1.9-1.1c1,1,2.3,1.8,3.7,2.1V60c0,1.1,0.9,2,2,2s2-0.9,2-2v-2.3c1.4-0.4,2.7-1.1,3.7-2.1l1.9,1.1
	c1,0.6,2.2,0.2,2.7-0.7S60.6,53.8,59.7,53.3z M50,54c-2.2,0-4-1.8-4-4s1.8-4,4-4s4,1.8,4,4S52.2,54,50,54z"/>
<circle class="st1" cx="50" cy="50" r="4"/>
</svg>
