<?xml version="1.0" encoding="utf-8"?>
<!-- Generator: Adobe Illustrator 21.0.2, SVG Export Plug-In . SVG Version: 6.00 Build 0)  -->
<svg version="1.1" id="Layer_1" xmlns="http://www.w3.org/2000/svg" xmlns:xlink="http://www.w3.org/1999/xlink" x="0px" y="0px"
	 viewBox="0 0 100 100" style="enable-background:new 0 0 100 100;" xml:space="preserve">
<style type="text/css">
	.st0{fill:#7CADFC;}
	.st1{fill:#4B4B4B;}
</style>
<circle class="st0" cx="50" cy="63.6" r="2"/>
<circle class="st0" cx="42" cy="67.6" r="2"/>
<path class="st0" d="M56,59.6c0,1.1,0.9,2,2,2c0.8,0,1.5-0.5,1.8-1.1c-0.8-1-1.5-1.9-2.3-2.8C56.6,58,56,58.7,56,59.6z"/>
<circle class="st0" cx="50" cy="71.6" r="2"/>
<circle class="st0" cx="58" cy="67.6" r="2"/>
<path class="st0" d="M58,57.6c-0.2,0-0.4,0-0.5,0.1c0.8,0.9,1.6,1.8,2.3,2.8c0.1-0.3,0.2-0.6,0.2-0.9C60,58.5,59.1,57.6,58,57.6z"/>
<path class="st1" d="M64,60.6v4.4c4.7-1.7,8-6.1,8-11.3c0-6.6-5.4-12-12-12c-0.7,0-1.4,0.1-2,0.2c-2.7-4.9-8-8.2-14-8.2
	c-8.8,0-16,7.2-16,16c0,5.9,3.2,11.1,8,13.8v-4.9c-2.5-2.2-4-5.4-4-8.9c0-6.6,5.4-12,12-12c5.7,0,10.4,4,11.7,9.3
	c1.3-0.8,2.7-1.3,4.3-1.3c4.4,0,8,3.6,8,8C68,56.6,66.4,59.2,64,60.6z"/>
<path class="st0" d="M40.1,58.9c0.3-0.3,0.6-0.7,0.9-1C40.7,58.1,40.3,58.5,40.1,58.9z"/>
<path class="st0" d="M40,59.6c0,1.1,0.9,2,2,2c1.1,0,2-0.9,2-2c0-1.1-0.9-2-2-2c-0.3,0-0.6,0.1-0.9,0.2c-0.3,0.3-0.6,0.7-0.9,1
	C40.1,59.1,40,59.4,40,59.6z"/>
</svg>
