<?xml version="1.0" encoding="utf-8"?>
<!-- Generator: Adobe Illustrator 21.0.2, SVG Export Plug-In . SVG Version: 6.00 Build 0)  -->
<svg version="1.1" id="Layer_1" xmlns="http://www.w3.org/2000/svg" xmlns:xlink="http://www.w3.org/1999/xlink" x="0px" y="0px"
	 viewBox="0 0 100 100" style="enable-background:new 0 0 100 100;" xml:space="preserve">
<style type="text/css">
	.st0{fill:#6699FF;}
	.st1{fill:#4B4B4B;}
	.st2{fill:#2797F4;}
</style>
<path class="st0" d="M50,69.6c1.1,0,1-0.9,1-2v-8c0-1.1,0.1-2-1-2s-1,0.9-1,2v8C49,68.7,48.9,69.6,50,69.6z"/>
<path class="st0" d="M42,53.6c-1.1,0-1,0.9-1,2v19.6c-1.1-1-2.5-1.6-4-1.6v2c2.2,0,4,1.8,4,4h2v-24C43,54.5,43.1,53.6,42,53.6z"/>
<path class="st1" d="M36,63.5v-4.9c-2.4-2.2-4-5.4-4-8.9c0-6.6,5.4-12,12-12c5.7,0,10.4,4,11.7,9.3c1.3-0.8,2.7-1.3,4.3-1.3
	c4.4,0,8,3.6,8,8c0,3-1.6,5.5-4,6.9v4.4c4.7-1.6,8-6.1,8-11.3c0-6.6-5.4-12-12-12c-0.7,0-1.4,0.1-2,0.2c-2.7-4.9-8-8.2-14-8.2
	c-8.8,0-16,7.2-16,16C28,55.6,31.2,60.7,36,63.5z"/>
<circle class="st2" cx="31" cy="74.6" r="2"/>
<circle class="st2" cx="73" cy="69.6" r="2"/>
<circle class="st2" cx="50" cy="75.6" r="2"/>
<path class="st0" d="M59,73.7v-18c0-1.1,0.1-2-1-2s-1,0.9-1,2v22c0,0.4,0,0.9,0,1.2c0,0.3,0,0.5,0,0.8h2c0-4.4,3.6-8,8-8v-2
	C63.7,69.6,60.8,71.2,59,73.7z"/>
</svg>
