<?xml version="1.0" encoding="utf-8"?>
<!-- Generator: Adobe Illustrator 21.0.2, SVG Export Plug-In . SVG Version: 6.00 Build 0)  -->
<svg version="1.1" id="Layer_1" xmlns="http://www.w3.org/2000/svg" xmlns:xlink="http://www.w3.org/1999/xlink" x="0px" y="0px"
	 viewBox="0 0 100 100" style="enable-background:new 0 0 100 100;" xml:space="preserve">
<style type="text/css">
	.st0{fill:#FFCC00;}
	.st1{fill:#4B4B4B;}
</style>
<path class="st0" d="M38.7,60h4.4c-0.7-1.2-1.1-2.5-1.1-4c0-4.4,3.6-8,8-8c4.4,0,8,3.6,8,8c0,1.5-0.4,2.8-1.1,4h4.4
	c0.4-1.3,0.7-2.6,0.7-4c0-6.6-5.4-12-12-12c-6.6,0-12,5.4-12,12C38,57.4,38.3,58.7,38.7,60z"/>
<path class="st0" d="M50,40c1.1,0,2-0.9,2-2v-4c0-1.1-0.9-2-2-2s-2,0.9-2,2v4C48,39.1,48.9,40,50,40z"/>
<path class="st0" d="M64.1,44.7l2.8-2.8c0.8-0.8,0.8-2,0-2.8c-0.8-0.8-2-0.8-2.8,0l-2.8,2.8c-0.8,0.8-0.8,2,0,2.8
	C62.1,45.5,63.4,45.5,64.1,44.7z"/>
<path class="st0" d="M34,56c0-1.1-0.9-2-2-2h-4c-1.1,0-2,0.9-2,2c0,1.1,0.9,2,2,2h4C33.1,58,34,57.1,34,56z"/>
<path class="st0" d="M35.9,44.7c0.8,0.8,2,0.8,2.8,0c0.8-0.8,0.8-2,0-2.8L35.9,39c-0.8-0.8-2-0.8-2.8,0c-0.8,0.8-0.8,2,0,2.8
	L35.9,44.7z"/>
<path class="st1" d="M60,64H40c-1.1,0-2,0.9-2,2c0,1.1,0.9,2,2,2h20c1.1,0,2-0.9,2-2C62,64.9,61.1,64,60,64z"/>
<path class="st0" d="M72,54h-4c-1.1,0-2,0.9-2,2c0,1.1,0.9,2,2,2h4c1.1,0,2-0.9,2-2C74,54.9,73.1,54,72,54z"/>
</svg>
