<?xml version="1.0" encoding="utf-8"?>
<!-- Generator: Adobe Illustrator 21.0.2, SVG Export Plug-In . SVG Version: 6.00 Build 0)  -->
<svg version="1.1" id="Layer_1" xmlns="http://www.w3.org/2000/svg" xmlns:xlink="http://www.w3.org/1999/xlink" x="0px" y="0px"
	 viewBox="0 0 100 100" style="enable-background:new 0 0 100 100;" xml:space="preserve">
<style type="text/css">
	.st0{fill:#6699FF;}
	.st1{fill:#92B9F7;}
</style>
<path class="st0" d="M56,52h-2h-4h-3h-4h-3h-4h-2c-1.1,0-2-0.9-2-2s0.9-2,2-2h13h7h2c3.3,0,6-2.7,6-6c0-3.2-2.5-5.7-5.6-6
	c-0.1,0-0.3,0-0.4,0c-1.1,0-2,0.9-2,2c0,1.1,0.9,2,2,2c1.1,0,2,0.9,2,2s-0.9,2-2,2h-2h-7H34c-0.1,0-0.3,0-0.4,0
	c-3.1,0.2-5.6,2.8-5.6,6c0,3.3,2.7,6,6,6h2h4h3h4h3h4h2c1.1,0,2,0.9,2,2s-0.9,2-2,2c-1.1,0-2,0.9-2,2c0,1.1,0.9,2,2,2
	c0.1,0,0.3,0,0.4,0c3.1-0.2,5.6-2.8,5.6-6C62,54.7,59.3,52,56,52z"/>
<path class="st1" d="M66.4,40c-0.1,0-0.3,0-0.4,0c-1.1,0-2,0.9-2,2s0.9,2,2,2c1.1,0,2,0.9,2,2c0,1.1-0.9,2-2,2h-3c-1.1,0-2,0.9-2,2
	s0.9,2,2,2h3c3.3,0,6-2.7,6-6C72,42.8,69.5,40.3,66.4,40z"/>
</svg>
