<?xml version="1.0" encoding="utf-8"?>
<!-- Generator: Adobe Illustrator 21.0.2, SVG Export Plug-In . SVG Version: 6.00 Build 0)  -->
<svg version="1.1" id="Layer_1" xmlns="http://www.w3.org/2000/svg" xmlns:xlink="http://www.w3.org/1999/xlink" x="0px" y="0px"
	 viewBox="0 0 100 100" style="enable-background:new 0 0 100 100;" xml:space="preserve">
<style type="text/css">
	.st0{fill:#FFCC00;}
	.st1{fill:#4B4B4B;}
</style>
<path class="st0" d="M79.9,39.6h-4c-1.1,0-2,0.9-2,2c0,1.1,0.9,2,2,2h4c1.1,0,2-0.9,2-2C81.9,40.5,81,39.6,79.9,39.6z"/>
<path class="st0" d="M74.9,24.7c-0.8-0.8-2-0.8-2.8,0l-2.8,2.8c-0.8,0.8-0.8,2,0,2.8c0.8,0.8,2,0.8,2.8,0l2.8-2.8
	C75.7,26.7,75.7,25.5,74.9,24.7z"/>
<path class="st1" d="M69.1,45.9c0.5-1.3,0.8-2.8,0.8-4.3c0-6.6-5.4-12-12-12c-3.8,0-7.3,1.8-9.5,4.7c-1.4-0.4-2.9-0.7-4.5-0.7
	c-8.8,0-16,7.2-16,16c0,8.8,7.2,16,16,16h16c6.6,0,12-5.4,12-12C71.9,50.7,70.9,48,69.1,45.9z M59.9,61.6H44c-6.6,0-12-5.4-12-12
	s5.4-12,12-12c5.7,0,10.4,4,11.7,9.3c1.3-0.8,2.7-1.3,4.3-1.3c4.4,0,8,3.6,8,8C67.9,58.1,64.4,61.6,59.9,61.6z"/>
<path class="st0" d="M57.9,33.6c4.4,0,8,3.6,8,8c0,0.5-0.1,1-0.1,1.5c-1.7-1-3.7-1.5-5.9-1.5c-0.7,0-1.4,0.1-2,0.2
	c-1.3-2.4-3.3-4.4-5.6-5.9C53.7,34.5,55.7,33.6,57.9,33.6z"/>
<path class="st0" d="M57.9,41.8c0.7-0.1,1.3-0.2,2-0.2c2.1,0,4.1,0.6,5.9,1.5c0.1-0.5,0.1-1,0.1-1.5c0-4.4-3.6-8-8-8
	c-2.2,0-4.2,0.9-5.7,2.3C54.6,37.4,56.6,39.4,57.9,41.8z"/>
<path class="st0" d="M57.9,25.6c1.1,0,2-0.9,2-2v-4c0-1.1-0.9-2-2-2c-1.1,0-2,0.9-2,2v4C55.9,24.7,56.8,25.6,57.9,25.6z"/>
<path class="st0" d="M43.8,30.3c0.8,0.8,2,0.8,2.8,0c0.5-0.5,0.7-1.2,0.5-1.8c-0.5-0.3-0.9-0.7-1.2-1.5c0.3,0.8,0.7,1.2,1.2,1.5
	c-0.1-0.4-0.3-0.7-0.5-1l-2.8-2.8c-0.8-0.8-2-0.8-2.8,0c-0.8,0.8-0.8,2,0,2.8L43.8,30.3z"/>
</svg>
