<?xml version="1.0" encoding="utf-8"?>
<!-- Generator: Adobe Illustrator 21.0.2, SVG Export Plug-In . SVG Version: 6.00 Build 0)  -->
<svg version="1.1" id="Layer_1" xmlns="http://www.w3.org/2000/svg" xmlns:xlink="http://www.w3.org/1999/xlink" x="0px" y="0px"
	 viewBox="0 0 100 100" style="enable-background:new 0 0 100 100;" xml:space="preserve">
<style type="text/css">
	.st0{fill:#4B4B4B;}
	.st1{fill:#FFCC00;}
</style>
<path class="st0" d="M72.7,36.4c-0.6,0.1-1.2,0.2-1.8,0.2c-4.4,0-8-3.6-8-8c0-0.6,0.1-1.2,0.2-1.8c-0.7-0.1-1.5-0.2-2.2-0.2
	c-5.2,0-9.7,3.4-11.3,8c-1.8-0.7-3.7-1-5.7-1c-2,0-3.9,0.4-5.6,1c5.6,0.9,11.2,2.1,16.7,3.5c-0.6-0.6-1.2-1.1-1.8-1.6
	c0.8-2.9,3-5.1,5.9-5.8c0.9,4.9,4.7,8.7,9.6,9.6c-0.1,0.4-0.2,0.8-0.4,1.2c1.3,0.3,2.6,0.7,3.9,1c0.5-1.3,0.7-2.6,0.7-4
	C72.9,37.9,72.9,37.2,72.7,36.4z"/>
<path class="st0" d="M72.2,42.7c-1.3-0.3-2.6-0.7-3.9-1c-0.3,0.8-0.8,1.6-1.4,2.3c-2-1.4-4.4-2.3-7-2.3c-0.7,0-1.4,0.1-2,0.2
	c-0.8-1.4-1.7-2.6-2.8-3.7c-5.6-1.4-11.1-2.6-16.7-3.5C32.3,37,28,42.8,28,49.6c0,8.8,7.2,16,16,16h16c6.6,0,12-5.4,12-12
	c0-2.6-0.8-4.9-2.2-6.9C70.8,45.6,71.7,44.2,72.2,42.7z M59.9,61.6H44c-6.6,0-12-5.4-12-12s5.4-12,12-12c5.7,0,10.4,4,11.7,9.3
	c1.3-0.8,2.7-1.3,4.3-1.3c4.4,0,8,3.6,8,8C67.9,58.1,64.4,61.6,59.9,61.6z"/>
<path class="st1" d="M68.7,40.4c-0.1,0.4-0.2,0.8-0.4,1.2c-0.3,0.8-0.8,1.6-1.4,2.3c-2-1.4-4.4-2.3-7-2.3c-0.7,0-1.4,0.1-2,0.2
	c-0.8-1.4-1.7-2.6-2.8-3.7c-0.6-0.6-1.2-1.1-1.8-1.6c0.8-2.9,3-5.1,5.9-5.8C60.1,35.7,63.9,39.5,68.7,40.4z"/>
</svg>
