<?xml version="1.0" encoding="utf-8"?>
<!-- Generator: Adobe Illustrator 21.0.2, SVG Export Plug-In . SVG Version: 6.00 Build 0)  -->
<svg version="1.1" id="Layer_1" xmlns="http://www.w3.org/2000/svg" xmlns:xlink="http://www.w3.org/1999/xlink" x="0px" y="0px"
	 viewBox="0 0 100 100" style="enable-background:new 0 0 100 100;" xml:space="preserve">
<style type="text/css">
	.st0{fill:#FFCC00;}
</style>
<path class="st0" d="M61.8,47.8C61.2,47.9,60.6,48,60,48c-4.4,0-8-3.6-8-8c0-0.6,0.1-1.2,0.2-1.8C51.5,38.1,50.8,38,50,38
	c-6.6,0-12,5.4-12,12s5.4,12,12,12s12-5.4,12-12C62,49.2,61.9,48.5,61.8,47.8z M50,58c-4.4,0-8-3.6-8-8c0-3.8,2.7-7,6.2-7.8
	c0.9,4.8,4.7,8.7,9.6,9.6C57,55.3,53.8,58,50,58z"/>
<path class="st0" d="M57.8,51.8C57,55.3,53.8,58,50,58c-4.4,0-8-3.6-8-8c0-3.8,2.7-7,6.2-7.8C49.1,47.1,52.9,50.9,57.8,51.8z"/>
</svg>
