<?xml version="1.0" encoding="utf-8"?>
<!-- Generator: Adobe Illustrator 21.0.2, SVG Export Plug-In . SVG Version: 6.00 Build 0)  -->
<svg version="1.1" id="Layer_1" xmlns="http://www.w3.org/2000/svg" xmlns:xlink="http://www.w3.org/1999/xlink" x="0px" y="0px"
	 viewBox="0 0 100 100" style="enable-background:new 0 0 100 100;" xml:space="preserve">
<style type="text/css">
	.st0{fill:#4B4B4B;}
	.st1{fill:#FFCC00;}
</style>
<path class="st0" d="M70,69.6H30c-1.1,0-2,0.9-2,2s0.9,2,2,2h40c1.1,0,2-0.9,2-2S71.1,69.6,70,69.6z"/>
<path class="st0" d="M70,61.6H30c-1.1,0-2,0.9-2,2s0.9,2,2,2h40c1.1,0,2-0.9,2-2S71.1,61.6,70,61.6z"/>
<path class="st0" d="M71.3,49.6c0,0,0-0.1-0.1-0.1c-0.1,0-0.1,0.1-0.2,0.1H71.3z"/>
<path class="st0" d="M61.4,53.6H33C42.9,55.5,52.9,55.8,61.4,53.6z"/>
<path class="st0" d="M33,53.6h-3c-1.1,0-2,0.9-2,2s0.9,2,2,2h40c1.1,0,2-0.9,2-2s-0.9-2-2-2h-8.6C52.9,55.8,42.9,55.5,33,53.6z"/>
<path class="st0" d="M69.8,46.8c0.6,0.8,1,1.8,1.4,2.7c-0.1,0-0.1,0.1-0.2,0.1h-4.1c-1.4-2.4-4-4-6.9-4c-1.6,0-3.1,0.5-4.3,1.3
	c-1.2-5.3-6-9.3-11.7-9.3c-6.6,0-12,5.4-12,12h-4c0-8.8,7.2-16,16-16c2,0,3.9,0.4,5.7,1c0,0,0-0.1,0-0.1c1.2,0.9,2.6,1.8,4.2,2.6
	c1.6,1.3,3,2.9,4,4.7c0.7-0.1,1.3-0.2,2-0.2c2.6,0,5,0.8,7,2.3c0.3-0.4,0.6-0.8,0.9-1.3c1.4,0.6,2.7,1.1,3.6,1.7
	C71.1,45.2,70.5,46,69.8,46.8z"/>
<path class="st1" d="M68.8,40.4c-0.2,0.8-0.5,1.5-0.9,2.2c-0.3,0.5-0.6,0.9-0.9,1.3c-2-1.4-4.4-2.3-7-2.3c-0.7,0-1.4,0.1-2,0.2
	c-1-1.8-2.4-3.4-4-4.7c-0.2-0.2-0.4-0.4-0.7-0.5c0.8-2.9,3-5.1,5.9-5.8C60.1,35.7,63.9,39.5,68.8,40.4z"/>
<path class="st0" d="M73,38.6c0,2.1-0.5,4-1.5,5.7c-1-0.6-2.2-1.2-3.6-1.7c0.4-0.7,0.7-1.4,0.9-2.2c-4.8-0.9-8.7-4.7-9.6-9.6
	c-2.9,0.7-5.2,2.9-5.9,5.8c0.2,0.2,0.4,0.3,0.7,0.5c-1.6-0.8-3-1.6-4.2-2.6c1.7-4.6,6.1-7.9,11.3-7.9c0.8,0,1.5,0.1,2.2,0.2
	C63.1,27.4,63,28,63,28.7c0,4.4,3.6,8,8,8c0.6,0,1.2-0.1,1.8-0.2C72.9,37.2,73,37.9,73,38.6z"/>
</svg>
