<?xml version="1.0" encoding="utf-8"?>
<!-- Generator: Adobe Illustrator 21.0.2, SVG Export Plug-In . SVG Version: 6.00 Build 0)  -->
<svg version="1.1" id="Layer_1" xmlns="http://www.w3.org/2000/svg" xmlns:xlink="http://www.w3.org/1999/xlink" x="0px" y="0px"
	 viewBox="0 0 100 100" style="enable-background:new 0 0 100 100;" xml:space="preserve">
<style type="text/css">
	.st0{fill:#FFCC00;}
	.st1{fill:#4B4B4B;}
</style>
<path class="st0" d="M58,25.6c1.1,0,2-0.9,2-2v-4c0-1.1-0.9-2-2-2s-2,0.9-2,2v4C56,24.8,56.9,25.6,58,25.6z"/>
<path class="st1" d="M70,69.6H30c-1.1,0-2,0.9-2,2c0,1.1,0.9,2,2,2h40c1.1,0,2-0.9,2-2C72,70.5,71.1,69.6,70,69.6z"/>
<path class="st0" d="M43.9,30.3c0.8,0.8,2,0.8,2.8,0c0.8-0.8,0.8-2,0-2.8l-2.8-2.8c-0.8-0.8-2-0.8-2.8,0c-0.8,0.8-0.8,2,0,2.8
	L43.9,30.3z"/>
<path class="st0" d="M72.1,30.3l2.8-2.8c0.8-0.8,0.8-2,0-2.8c-0.8-0.8-2-0.8-2.8,0l-2.8,2.8c-0.8,0.8-0.8,2,0,2.8
	S71.4,31.1,72.1,30.3z"/>
<path class="st1" d="M70,53.6H30c-1.1,0-2,0.9-2,2c0,1.1,0.9,2,2,2h40c1.1,0,2-0.9,2-2C72,54.5,71.1,53.6,70,53.6z"/>
<path class="st1" d="M70,61.6H30c-1.1,0-2,0.9-2,2c0,1.1,0.9,2,2,2h40c1.1,0,2-0.9,2-2C72,62.5,71.1,61.6,70,61.6z"/>
<path class="st1" d="M71.3,49.6h-4.4c-1.4-2.4-4-4-6.9-4c-1.6,0-3.1,0.5-4.3,1.3c-1.2-5.3-6-9.3-11.7-9.3c-6.6,0-12,5.4-12,12h-4
	c0-8.8,7.2-16,16-16c1.4,0,2.8,0.2,4.1,0.5c1.5,0.5,2.9,1.1,4.4,1.7c0,0-0.1,0.1-0.1,0.1c2.3,1.4,4.3,3.5,5.6,5.9
	c0.7-0.1,1.3-0.2,2-0.2c2.1,0,4.1,0.6,5.8,1.5c0,0,0,0,0-0.1c1.2,0.7,2.4,1.4,3.6,2c-0.1,0.3-0.2,0.5-0.3,0.8
	C70.1,47,70.8,48.3,71.3,49.6z"/>
<path class="st0" d="M80,39.6h-4c-1.1,0-2,0.9-2,2c0,1.1,0.9,2,2,2h4c1.1,0,2-0.9,2-2C82,40.5,81.1,39.6,80,39.6z"/>
<path class="st0" d="M66,41.6c0,0.5,0,1-0.1,1.5c0,0,0,0,0,0.1c-1.7-1-3.7-1.5-5.8-1.5c-0.7,0-1.4,0.1-2,0.2
	c-1.3-2.4-3.3-4.4-5.6-5.9c0,0,0.1-0.1,0.1-0.1c1.4-1.4,3.4-2.3,5.5-2.3C62.4,33.6,66,37.2,66,41.6z"/>
<path class="st1" d="M70,41.6c0,1.2-0.2,2.4-0.5,3.5c-1.2-0.7-2.4-1.3-3.6-2c0.1-0.5,0.1-1,0.1-1.5c0-4.4-3.6-8-8-8
	c-2.2,0-4.1,0.9-5.5,2.3c-1.5-0.6-2.9-1.2-4.4-1.7c0.2,0,0.3,0.1,0.5,0.1c2.2-2.8,5.6-4.7,9.5-4.7C64.6,29.6,70,35,70,41.6z"/>
</svg>
