<?xml version="1.0" encoding="utf-8"?>
<!-- Generator: Adobe Illustrator 21.0.2, SVG Export Plug-In . SVG Version: 6.00 Build 0)  -->
<svg version="1.1" id="Layer_1" xmlns="http://www.w3.org/2000/svg" xmlns:xlink="http://www.w3.org/1999/xlink" x="0px" y="0px"
	 viewBox="0 0 100 100" style="enable-background:new 0 0 100 100;" xml:space="preserve">
<style type="text/css">
	.st0{fill:#FFC114;}
	.st1{fill:#4B4B4B;}
	.st2{fill:#FFCC00;}
</style>
<path class="st0" d="M43.9,30.3c0.8,0.8,2,0.8,2.8,0c0.8-0.8,0.8-2,0-2.8l-2.8-2.8c-0.8-0.8-2-0.8-2.8,0c-0.8,0.8-0.8,2,0,2.8
	L43.9,30.3z"/>
<path class="st0" d="M72.1,30.3l2.8-2.8c0.8-0.8,0.8-2,0-2.8c-0.8-0.8-2-0.8-2.8,0l-2.8,2.8c-0.8,0.8-0.8,2,0,2.8
	S71.4,31.1,72.1,30.3z"/>
<path class="st0" d="M58,25.6c1.1,0,2-0.9,2-2v-4c0-1.1-0.9-2-2-2s-2,0.9-2,2v4C56,24.7,56.9,25.6,58,25.6z"/>
<path class="st0" d="M80,39.6h-4c-1.1,0-2,0.9-2,2c0,1.1,0.9,2,2,2h4c1.1,0,2-0.9,2-2C82,40.5,81.1,39.6,80,39.6z"/>
<path class="st1" d="M72,53.6c0,6.6-5.4,12-12,12h-1.1l3.6-4.4c3.2-1.1,5.5-4,5.5-7.6c0-0.7-0.1-1.4-0.3-2c-0.9-3.5-4-6-7.7-6
	c-1.6,0-3.1,0.5-4.3,1.3c-1.2-5.3-6-9.3-11.7-9.3c-6.6,0-12,5.4-12,12c0,0.7,0.1,1.3,0.2,2h0c0.8,4.5,4.1,8.2,8.4,9.5l-1.3,3.8
	c-5.9-1.8-10.3-7-11.1-13.3c-0.1-0.7-0.1-1.3-0.1-2c0-8.8,7.2-16,16-16c1.6,0,3.1,0.2,4.5,0.7c0.1-0.1,0.2-0.3,0.3-0.4
	c1.2,0.6,2.5,1.2,3.7,1.9c-0.1,0.1-0.2,0.1-0.2,0.2c2.3,1.4,4.3,3.5,5.6,5.9c0.7-0.1,1.3-0.2,2-0.2c1.7,0,3.3,0.4,4.7,1
	c1.6,1,3.1,2.1,4.6,3.2c0,0,0,0.1-0.1,0.2c1.3,1.6,2.3,3.5,2.6,5.7h0C71.9,52.3,72,53,72,53.6z"/>
<path class="st0" d="M66,41.6c0,0.5,0,1-0.2,1.5c-0.4-0.2-0.8-0.4-1.2-0.6c-1.4-0.6-3-1-4.7-1c-0.7,0-1.4,0.1-2,0.2
	c-1.3-2.4-3.3-4.4-5.6-5.9c0.1-0.1,0.1-0.1,0.2-0.2c1.4-1.3,3.3-2.1,5.4-2.1C62.4,33.6,66,37.2,66,41.6z"/>
<path class="st1" d="M70,41.6c0,1.5-0.3,2.8-0.8,4.1c-1.5-1.1-3-2.2-4.6-3.2c0.4,0.2,0.8,0.4,1.2,0.6c0.1-0.5,0.2-1,0.2-1.5
	c0-4.4-3.6-8-8-8c-2.1,0-4,0.8-5.4,2.1c-1.3-0.6-2.5-1.3-3.7-1.9c2.2-2.6,5.5-4.3,9.2-4.3C64.6,29.6,70,35,70,41.6z"/>
<polygon class="st2" points="59,61.6 52,61.6 58,51.6 48,51.6 43,65.6 49.6,65.6 46,77.6 "/>
</svg>
