<?xml version="1.0" encoding="utf-8"?>
<!-- Generator: Adobe Illustrator 21.0.2, SVG Export Plug-In . SVG Version: 6.00 Build 0)  -->
<svg version="1.1" id="Layer_1" xmlns="http://www.w3.org/2000/svg" xmlns:xlink="http://www.w3.org/1999/xlink" x="0px" y="0px"
	 viewBox="0 0 100 100" style="enable-background:new 0 0 100 100;" xml:space="preserve">
<style type="text/css">
	.st0{fill:#FFC114;}
	.st1{fill:#4B4B4B;}
	.st2{fill:#6699FF;}
</style>
<path class="st0" d="M43.9,30.3c0.8,0.8,2,0.8,2.8,0c0.8-0.8,0.8-2,0-2.8l-2.8-2.8c-0.8-0.8-2-0.8-2.8,0c-0.8,0.8-0.8,2,0,2.8
	L43.9,30.3z"/>
<path class="st1" d="M70,41.7c0,1.3-0.2,2.5-0.6,3.7c-0.1-0.1-0.2-0.2-0.3-0.3c-1-0.8-2.1-1.6-3.1-2.3c0-0.3,0.1-0.7,0.1-1
	c0-4.4-3.6-8-8-8c-2.1,0-4.1,0.8-5.5,2.2c-1.9-0.7-3.8-1.3-5.7-1.9c0.6,0.1,1.2,0.2,1.7,0.4c2.2-2.8,5.6-4.7,9.5-4.7
	C64.7,29.7,70,35,70,41.7z"/>
<path class="st0" d="M72.2,30.3l2.8-2.8c0.8-0.8,0.8-2,0-2.8c-0.8-0.8-2-0.8-2.8,0l-2.8,2.8c-0.8,0.8-0.8,2,0,2.8
	C70.1,31.1,71.4,31.1,72.2,30.3z"/>
<path class="st2" d="M42,53.7c-1.1,0-2,0.9-2,2v16c0,1.1,0.9,2,2,2c1.1,0,2-0.9,2-2v-16C44,54.6,43.1,53.7,42,53.7z"/>
<path class="st0" d="M58,25.7c1.1,0,2-0.9,2-2v-4c0-1.1-0.9-2-2-2c-1.1,0-2,0.9-2,2v4C56,24.8,56.9,25.7,58,25.7z"/>
<path class="st0" d="M80,39.7h-4c-1.1,0-2,0.9-2,2c0,1.1,0.9,2,2,2h4c1.1,0,2-0.9,2-2C82,40.6,81.1,39.7,80,39.7z"/>
<path class="st0" d="M66,41.7c0,0.4,0,0.7-0.1,1c0,0.2,0,0.3-0.1,0.5c-1.7-1-3.7-1.5-5.9-1.5c-0.7,0-1.4,0.1-2,0.2
	c-1.3-2.4-3.3-4.4-5.6-5.9c0.1-0.1,0.1-0.1,0.2-0.2c1.4-1.3,3.4-2.2,5.5-2.2C62.4,33.7,66,37.2,66,41.7z"/>
<path class="st1" d="M72,53.7c0,5.2-3.3,9.7-8,11.3v-4.4c2.4-1.4,4-4,4-6.9c0-4.4-3.6-8-8-8c-1.6,0-3.1,0.5-4.3,1.3
	c-1.2-5.3-6-9.3-11.7-9.3c-6.6,0-12,5.4-12,12c0,3.6,1.5,6.7,4,8.9v4.9c-4.8-2.8-8-7.9-8-13.8c0-8.8,7.2-16,16-16
	c0.9,0,1.9,0.1,2.8,0.3c1.9,0.6,3.8,1.2,5.7,1.9c-0.1,0.1-0.1,0.1-0.2,0.2c2.3,1.4,4.3,3.5,5.6,5.9c0.7-0.1,1.3-0.2,2-0.2
	c2.1,0,4.1,0.6,5.9,1.5c0-0.2,0-0.3,0.1-0.5c1,0.7,2.1,1.5,3.1,2.3c0.1,0.1,0.2,0.2,0.3,0.3c-0.1,0.2-0.1,0.4-0.2,0.6
	C71,48,72,50.7,72,53.7z"/>
<path class="st2" d="M50,57.7c-1.1,0-2,0.9-2,2v16c0,1.1,0.9,2,2,2c1.1,0,2-0.9,2-2v-16C52,58.6,51.1,57.7,50,57.7z"/>
<path class="st2" d="M58,53.7c-1.1,0-2,0.9-2,2v16c0,1.1,0.9,2,2,2c1.1,0,2-0.9,2-2v-16C60,54.6,59.1,53.7,58,53.7z"/>
</svg>
