<?xml version="1.0" encoding="utf-8"?>
<!-- Generator: Adobe Illustrator 21.0.2, SVG Export Plug-In . SVG Version: 6.00 Build 0)  -->
<svg version="1.1" id="Layer_1" xmlns="http://www.w3.org/2000/svg" xmlns:xlink="http://www.w3.org/1999/xlink" x="0px" y="0px"
	 viewBox="0 0 100 100" style="enable-background:new 0 0 100 100;" xml:space="preserve">
<style type="text/css">
	.st0{fill:#FFCC00;}
	.st1{fill:#4B4B4B;}
</style>
<polygon class="st0" points="59,61.6 52,61.6 58,51.6 48,51.6 43,65.6 49.6,65.6 46,77.6 "/>
<path class="st1" d="M58.9,65.6c0.1,0,0.3,0,0.4,0c0-0.2,0-0.4,0-0.5L58.9,65.6z"/>
<path class="st1" d="M72,53.6c0-6.6-5.4-12-12-12c-0.7,0-1.4,0.1-2,0.2c-2.7-4.9-8-8.2-14-8.2c-8.8,0-16,7.2-16,16
	c0,7.2,4.7,13.3,11.3,15.3l1.3-3.8c-5-1.5-8.6-6.1-8.6-11.5c0-6.6,5.4-12,12-12c5.7,0,10.4,4,11.7,9.3c1.3-0.8,2.7-1.3,4.3-1.3
	c4.4,0,8,3.6,8,8c0,3.5-2.3,6.5-5.5,7.6l-3.1,3.9c0,0.2,0,0.4,0,0.5c0.2,0,0.5,0,0.7,0C66.6,65.6,72,60.3,72,53.6z"/>
</svg>
