<?xml version="1.0" encoding="utf-8"?>
<!-- Generator: Adobe Illustrator 21.0.2, SVG Export Plug-In . SVG Version: 6.00 Build 0)  -->
<svg version="1.1" id="Layer_1" xmlns="http://www.w3.org/2000/svg" xmlns:xlink="http://www.w3.org/1999/xlink" x="0px" y="0px"
	 viewBox="0 0 100 100" style="enable-background:new 0 0 100 100;" xml:space="preserve">
<style type="text/css">
	.st0{fill:#4B4B4B;}
	.st1{fill:#567DC9;}
	.st2{fill:#6699FF;}
</style>
<path class="st0" d="M72.9,38.6c0-0.8-0.1-1.5-0.2-2.2c-0.6,0.1-1.2,0.2-1.8,0.2c-4.4,0-8-3.6-8-8c0-0.6,0.1-1.2,0.2-1.8
	c-0.7-0.1-1.5-0.2-2.2-0.2c-2.6,0-5,0.8-7,2.3c-2,1.4-3.5,3.4-4.3,5.8c-1.8-0.7-3.7-1-5.7-1c-8.8,0-16,7.2-16,16
	c0,5.9,3.2,11.1,8,13.8v-4.9c-2.5-2.2-4-5.4-4-8.9c0-6.6,5.4-12,12-12c5.7,0,10.4,4,11.7,9.3c1.3-0.8,2.7-1.3,4.3-1.3
	c4.4,0,8,3.6,8,8c0,3-1.6,5.5-4,6.9v4.4c4.7-1.7,8-6.1,8-11.3c0-2.6-0.8-4.9-2.2-6.9C71.7,44.6,72.9,41.8,72.9,38.6z M67,43.9
	c-2-1.4-4.4-2.3-7-2.3c-0.7,0-1.4,0.1-2,0.2c-1.2-2.1-2.8-3.8-4.7-5.2c0.8-2.9,3-5.1,5.9-5.8c0.9,4.9,4.7,8.7,9.6,9.6
	C68.4,41.7,67.8,42.9,67,43.9z"/>
<path class="st1" d="M59.9,55.6v4c0,1.1-0.9,2-2,2c-1.1,0-2-0.9-2-2v-4c0-1.1,0.9-2,2-2C59,53.6,59.9,54.5,59.9,55.6z"/>
<path class="st2" d="M51.9,71.6v4c0,1.1-0.9,2-2,2c-1.1,0-2-0.9-2-2v-4c0-1.1,0.9-2,2-2C51,69.6,51.9,70.5,51.9,71.6z"/>
<path class="st2" d="M43.9,55.6v4c0,1.1-0.9,2-2,2c-1.1,0-2-0.9-2-2v-4c0-1.1,0.9-2,2-2C43,53.6,43.9,54.5,43.9,55.6z"/>
<path class="st1" d="M59.9,67.6v4c0,1.1-0.9,2-2,2c-1.1,0-2-0.9-2-2v-4c0-1.1,0.9-2,2-2C59,65.6,59.9,66.5,59.9,67.6z"/>
<path class="st2" d="M51.9,59.6v4c0,1.1-0.9,2-2,2c-1.1,0-2-0.9-2-2v-4c0-1.1,0.9-2,2-2C51,57.6,51.9,58.5,51.9,59.6z"/>
<path class="st2" d="M43.9,67.6v4c0,1.1-0.9,2-2,2c-1.1,0-2-0.9-2-2v-4c0-1.1,0.9-2,2-2C43,65.6,43.9,66.5,43.9,67.6z"/>
</svg>
