<?xml version="1.0" encoding="utf-8"?>
<!-- Generator: Adobe Illustrator 21.0.2, SVG Export Plug-In . SVG Version: 6.00 Build 0)  -->
<svg version="1.1" id="Capa_1" xmlns="http://www.w3.org/2000/svg" xmlns:xlink="http://www.w3.org/1999/xlink" x="0px" y="0px"
	 viewBox="0 0 510 510" style="enable-background:new 0 0 510 510;" xml:space="preserve">
<style type="text/css">
	.st0{fill:#4B4B4B;}
	.st1{fill:#FFCC00;}
</style>
<g>
	<g id="XMLID_1_">
		<g>
			<path class="st0" d="M439.1,286.6c40,4.2,70.9,36.4,70.9,76c0,42.7-36.4,79.5-80.1,79.5H178.1c-50.5-3-91.6-41.8-91.6-90.8
				c0-51.3,42.6-95.9,95.1-95.9c7.6,0,15.1,0.9,22.4,2.6c20.1-53.7,52.6-88.3,111.3-88.3C385.6,169.6,429.9,219,439.1,286.6z
				 M429.9,419.3c29.4,0,57.2-28,57.2-56.8c0-28.8-27-51-56.5-51l-15.8,1.1l-0.6-12.9c-2.7-59.5-38-107.5-98.8-107.5
				c-51.8,0-77.3,35.7-90.2,84.8l-3.7,14l-13.8-5.5c-8.4-3.3-17.1-5-26.1-5c-38.2,0-72.2,33.3-72.2,70.6c0,35.6,32.3,66,68.7,68.1
				H429.9z"/>
			<path class="st1" d="M260.2,155.7c-8.1,3.2-15.4,7.4-22.2,12.4c-15.7-9.8-34.1-15.8-54-15.8c-56,0-101.6,45.2-101.6,100.8
				c0,8.3,1.3,16.3,3.3,24.1c-6.3,7.9-11.6,16.6-15.3,26c-6.9-15.3-10.8-32.3-10.8-50.2c0-68.1,55.9-123.5,124.5-123.5
				C212.7,129.7,239.1,139.5,260.2,155.7z"/>
			<path class="st1" d="M184.9,67.9l20.1,39.7h-1.3c-6.1-0.9-12.4-1.5-18.8-1.5c-6.4,0-12.7,0.6-18.8,1.5h-1.3L184.9,67.9z"/>
			<path class="st1" d="M90.9,143.7l-0.9,0.9c-5,3.7-9.8,7.6-14.4,12.1c-4.5,4.5-8.5,9.3-12.2,14.2l-0.9,0.9l-14.1-42.2L90.9,143.7z
				"/>
			<path class="st1" d="M40.1,271.8v1.3L0,253.1l40.1-19.9v1.3c-0.9,6.1-1.5,12.3-1.5,18.6C38.5,259.5,39.2,265.6,40.1,271.8z"/>
		</g>
		<g>
		</g>
	</g>
</g>
</svg>
