<?xml version="1.0" encoding="utf-8"?>
<!-- Generator: Adobe Illustrator 21.0.2, SVG Export Plug-In . SVG Version: 6.00 Build 0)  -->
<svg version="1.1" id="Layer_1" xmlns="http://www.w3.org/2000/svg" xmlns:xlink="http://www.w3.org/1999/xlink" x="0px" y="0px"
	 viewBox="0 0 332.4 332.4" style="enable-background:new 0 0 332.4 332.4;" xml:space="preserve">
<style type="text/css">
	.st0{fill:#4B4B4B;}
	.st1{fill:#6699FF;}
</style>
<g>
	<g id="XMLID_1_">
		<g>
			<path class="st0" d="M331.9,149.6c1.7,13.9-1.7,27.8-10.4,38.3c-8.7,8.7-20.9,15.7-34.8,15.7H48.3c-20.9,0-38.3-12.2-45.2-31.3
				c-5.2-13.9-3.5-27.8,3.5-38.3c7-12.2,19.1-19.2,33.1-20.9l8.7-1.7c1.7,0,3.5-1.7,5.2-3.5l3.5-8.7c8.7-24.4,31.3-40,55.7-40
				c1.7,0,5.2,0,7,0l10.4,1.7c3.5,0,5.2-1.7,7-3.5l3.5-7C152.7,24.4,177.1,7,203.1,7h3.5c40,0,73.1,33.1,73.1,73.1
				c0,3.5,0,7-1.7,10.4l-1.7,13.9c0,3.5,1.7,7,5.2,7l12.2,1.7C312.8,116.6,328.4,130.5,331.9,149.6z M307.6,177.5
				c5.2-7,7-15.7,5.2-24.4c-1.7-10.4-12.2-20.9-24.4-22.6l-12.2-1.7c-12.2-1.7-20.9-13.9-19.1-26.1l1.7-13.9c0-3.5,0-5.2,0-8.7
				c0-29.6-24.4-55.7-55.7-55.7h-1.7c-20.9,0-38.3,13.9-48.7,34.8l-3.5,7C145.7,74.8,137,80,128.3,80c0,0-1.7,0-3.5,0l-10.4-1.7
				c1.7-1.7,0-1.7-1.7-1.7c-17.4,0-33.1,12.2-40,27.8l-3.5,8.7c-3.5,8.7-10.4,13.9-19.1,15.7l-8.7,1.7c-8.7,1.7-15.7,5.2-20.9,13.9
				c-5.2,7-5.2,15.7-1.7,24.4c3.5,10.4,15.7,19.1,27.8,19.1h238.4C293.6,187.9,300.6,184.4,307.6,177.5z"/>
		</g>
		<g>
		</g>
	</g>
	<g id="XMLID_2_">
		<g>
			<path class="st1" d="M244.9,247.1v34.8c0,5.2-3.5,8.7-8.7,8.7c-5.2,0-8.7-3.5-8.7-8.7v-34.8c0-5.2,3.5-8.7,8.7-8.7
				C241.4,238.4,244.9,241.9,244.9,247.1z"/>
			<path class="st1" d="M175.3,281.9v34.8c0,5.2-3.5,8.7-8.7,8.7s-8.7-3.5-8.7-8.7v-34.8c0-5.2,3.5-8.7,8.7-8.7
				S175.3,276.7,175.3,281.9z"/>
			<path class="st1" d="M105.7,247.1v34.8c0,5.2-3.5,8.7-8.7,8.7s-8.7-3.5-8.7-8.7v-34.8c0-5.2,3.5-8.7,8.7-8.7
				S105.7,241.9,105.7,247.1z"/>
		</g>
		<g>
		</g>
	</g>
</g>
</svg>
