<?xml version="1.0" encoding="utf-8"?>
<!-- Generator: Adobe Illustrator 21.0.2, SVG Export Plug-In . SVG Version: 6.00 Build 0)  -->
<svg version="1.1" id="Capa_1" xmlns="http://www.w3.org/2000/svg" xmlns:xlink="http://www.w3.org/1999/xlink" x="0px" y="0px"
	 viewBox="0 0 32 32" style="enable-background:new 0 0 32 32;" xml:space="preserve">
<style type="text/css">
	.st0{fill:#FFCC00;}
	.st1{fill:#4B4B4B;}
</style>
<g>
	<g id="XMLID_2_">
		<g>
			<polygon class="st0" points="16.5,21.5 20,21.5 13,28.5 14.4,23.5 12,23.5 14.7,16.5 19,16.5 			"/>
		</g>
		<g>
		</g>
	</g>
	<g id="XMLID_1_">
		<g>
			<path class="st1" d="M27.6,11.7c2.5,0.7,4.4,3,4.4,5.8c0,3.3-2.7,6-6,6h-5l2-2h3c2.2,0,4-1.8,4-4c0-2.2-1.8-4-4-4h0
				c-0.2-2.3-2.1-4-4.5-4c-1.1,0-2,0.4-2.8,1c-0.9-2.9-3.5-5-6.7-5c-3.9,0-7,3.1-7,7c0,0.4,0,0.7,0.1,1.1C3.3,14,2,15.6,2,17.5
				c0,2.2,1.8,4,4,4h4.6l-0.8,2H6c-3.3,0-6-2.7-6-6c0-2.2,1.2-4.2,3-5.2c0.1-4.9,4.1-8.8,9-8.8c3.2,0,6.1,1.7,7.6,4.3
				c0.6-0.2,1.2-0.3,1.9-0.3C24.3,7.5,26.7,9.3,27.6,11.7z"/>
		</g>
		<g>
		</g>
	</g>
</g>
</svg>
